<svg id="Iconos_categorias_inicio" data-name="Iconos categorias inicio" xmlns="http://www.w3.org/2000/svg" xmlns:xlink="http://www.w3.org/1999/xlink" width="35" height="30.325" viewBox="0 0 35 30.325">
  <defs>
    <clipPath id="clip-path">
      <rect id="Rectángulo_8124" data-name="Rectángulo 8124" width="35" height="30.325" fill="#187385"/>
    </clipPath>
  </defs>
  <g id="Grupo_18106" data-name="Grupo 18106">
    <g id="Grupo_18105" data-name="Grupo 18105" clip-path="url(#clip-path)">
      <path id="Trazado_29726" data-name="Trazado 29726" d="M32.423,21.106a2.577,2.577,0,0,0-2.577,2.577,2.538,2.538,0,0,0,.261,1.123l-3.143,3.213a.392.392,0,0,0-.087.122,2.524,2.524,0,0,0-1.088-.244,2.619,2.619,0,0,0-1.167.279.379.379,0,0,0-.052-.061l-3.6-3.4a.559.559,0,0,0-.113-.087,2.579,2.579,0,1,0-4.937-1.045,2.608,2.608,0,0,0,.07.583.218.218,0,0,0-.061.035l-3.848,2.647a.361.361,0,0,0-.1.1h-.009a2.568,2.568,0,0,0-3.8.888.641.641,0,0,0-.122-.035l-2.777-.47a.473.473,0,0,0-.192,0,2.562,2.562,0,1,0-.192,1.689.393.393,0,0,0,.1.026l2.769.47a.969.969,0,0,0,.148.017h.026a2.576,2.576,0,0,0,5.1-.5,2.77,2.77,0,0,0-.087-.67.87.87,0,0,0,.122-.07l3.848-2.647.017-.017a2.546,2.546,0,0,0,2.743.252.6.6,0,0,0,.1.113l3.6,3.4a.231.231,0,0,0,.052.044,2.6,2.6,0,0,0-.218,1.036,2.577,2.577,0,0,0,5.154,0,2.466,2.466,0,0,0-.27-1.132.657.657,0,0,0,.122-.1l3.134-3.213A2.573,2.573,0,0,0,35,23.683a2.571,2.571,0,0,0-2.577-2.577" transform="translate(0 -2.718)" fill="#187385"/>
      <path id="Trazado_29727" data-name="Trazado 29727" d="M32.423,0a2.575,2.575,0,0,0-2.577,2.568,2.523,2.523,0,0,0,.287,1.175c-.026.017-.044.035-.07.052L26.92,6.652a.6.6,0,0,0-.1.113,2.513,2.513,0,0,0-1.219-.313,2.546,2.546,0,0,0-1.942.888L20.922,5.7a.527.527,0,0,0-.183-.07V5.624a2.259,2.259,0,0,0,.026-.348A2.577,2.577,0,1,0,15.9,6.46c-.035.035-.07.061-.1.1l-3.552,3.77c-.035.035-.061.078-.1.113a2.673,2.673,0,0,0-1.027-.209,2.569,2.569,0,0,0-2.56,2.351c-.009-.009-.026,0-.044,0l-3.578.453a.432.432,0,0,0-.113.026A2.578,2.578,0,1,0,5.1,14.766h.061l3.57-.461a.784.784,0,0,0,.244-.07A2.575,2.575,0,0,0,13.7,12.807a2.522,2.522,0,0,0-.3-1.193.6.6,0,0,0,.113-.1l3.544-3.77a.986.986,0,0,0,.087-.113,2.6,2.6,0,0,0,2.821-.488.483.483,0,0,0,.07.052l2.777,1.654a.718.718,0,0,0,.226.087.3.3,0,0,0-.009.087,2.573,2.573,0,1,0,5.146,0,2.527,2.527,0,0,0-.2-.993.657.657,0,0,0,.122-.1l3.143-2.856a.827.827,0,0,0,.139-.165,2.475,2.475,0,0,0,1.045.226,2.573,2.573,0,1,0,0-5.146" fill="#187385"/>
    </g>
  </g>
</svg>
