<svg id="icono-mail-ppal" xmlns="http://www.w3.org/2000/svg" width="22.015" height="18" viewBox="0 0 22.015 18">
  <path id="Trazado_28158" data-name="Trazado 28158" d="M252.44,347.678a3,3,0,0,0-2.967-2.69h-16a3.015,3.015,0,0,0-3,3v12a3.015,3.015,0,0,0,3,3h16a3.013,3.013,0,0,0,3-3V348.147a.984.984,0,0,0-.033-.469m-18.967-.69h16a1,1,0,0,1,.884.559l-8.887,6.222-8.882-6.219a1,1,0,0,1,.885-.562m16,14h-16a1.008,1.008,0,0,1-1-1V349.91l8.424,5.9a1,1,0,0,0,1.146,0l8.43-5.9v10.082a1.007,1.007,0,0,1-1,1" transform="translate(-230.473 -344.988)" fill="#b3b3b3"/>
</svg>
