<svg id="icono-eyes-ppal" xmlns="http://www.w3.org/2000/svg" width="24.005" height="18" viewBox="0 0 24.005 18">
  <path id="Trazado_28060" data-name="Trazado 28060" d="M660.124,217c-7.531,0-11.719-8.2-11.894-8.553a1,1,0,0,1,0-.894c.175-.349,4.363-8.553,11.894-8.553s11.72,8.2,11.9,8.553a1,1,0,0,1,0,.894c-.175.349-4.363,8.553-11.9,8.553m-9.858-9c.937,1.608,4.481,7,9.858,7,5.394,0,8.924-5.389,9.859-7-.938-1.608-4.482-7-9.859-7-5.393,0-8.923,5.389-9.858,7" transform="translate(-648.124 -199)" fill="#187385"/>
  <path id="Trazado_28061" data-name="Trazado 28061" d="M660.124,212a4,4,0,1,1,4-4,4,4,0,0,1-4,4m0-6a2,2,0,1,0,2,2,2,2,0,0,0-2-2" transform="translate(-648.124 -199)" fill="#187385"/>
</svg>
