<svg id="icono-principal-equipos-financiados" xmlns="http://www.w3.org/2000/svg" xmlns:xlink="http://www.w3.org/1999/xlink" width="37" height="32.746" viewBox="0 0 37 32.746">
  <defs>
    <clipPath id="clip-path">
      <rect id="Rectángulo_11478" data-name="Rectángulo 11478" width="37" height="32.746" fill="none"/>
    </clipPath>
  </defs>
  <g id="Grupo_22066" data-name="Grupo 22066" clip-path="url(#clip-path)">
    <path id="Trazado_35676" data-name="Trazado 35676" d="M27.026,0H15.287a4.059,4.059,0,0,0-4.039,4.07V28.677a4.058,4.058,0,0,0,4.039,4.069H27.026a4.058,4.058,0,0,0,4.039-4.069V4.07A4.059,4.059,0,0,0,27.026,0M29.45,28.677a2.436,2.436,0,0,1-2.424,2.442H15.287a2.436,2.436,0,0,1-2.424-2.442V4.07a2.437,2.437,0,0,1,2.424-2.442H15.3A2.491,2.491,0,0,0,17.766,3.9H24.16a2.49,2.49,0,0,0,2.467-2.275h.4A2.436,2.436,0,0,1,29.449,4.07Z" transform="translate(-2.578 0)" fill="#187385"/>
    <path id="Trazado_35677" data-name="Trazado 35677" d="M42.006,2.635H37.268a4.262,4.262,0,0,1,.256,1.408V6.05H39.5a2.179,2.179,0,0,0,2.159-1.99h.348A2.13,2.13,0,0,1,44.126,6.2V27.727a2.131,2.131,0,0,1-2.121,2.136H37.524v.017a4.262,4.262,0,0,1-.256,1.407h4.738a3.551,3.551,0,0,0,3.534-3.561V6.2a3.552,3.552,0,0,0-3.534-3.561" transform="translate(-8.541 -0.589)" fill="#e03224"/>
    <path id="Trazado_35678" data-name="Trazado 35678" d="M8.175,29.864H3.534a2.132,2.132,0,0,1-2.121-2.136V6.2A2.132,2.132,0,0,1,3.534,4.06h.009A2.18,2.18,0,0,0,5.7,6.051H8.175V4.044a4.262,4.262,0,0,1,.256-1.408h-4.9A3.552,3.552,0,0,0,0,6.2V27.728a3.552,3.552,0,0,0,3.534,3.561h4.9a4.262,4.262,0,0,1-.256-1.408Z" transform="translate(0 -0.589)" fill="#e03224"/>
  </g>
</svg>
