<svg id="icono-user-plus-ppal" xmlns="http://www.w3.org/2000/svg" width="24" height="20" viewBox="0 0 24 20">
  <path id="Trazado_28394" data-name="Trazado 28394" d="M112.564,609.98a1,1,0,0,1-1-1v-2a3,3,0,0,0-3-3h-7a3,3,0,0,0-3,3v2a1,1,0,0,1-2,0v-2a5.006,5.006,0,0,1,5-5h7a5.006,5.006,0,0,1,5,5v2a1,1,0,0,1-1,1" transform="translate(-96.564 -589.98)" fill="#187385"/>
  <path id="Trazado_28395" data-name="Trazado 28395" d="M105.064,599.98a5,5,0,1,1,5-5,5,5,0,0,1-5,5m0-8a3,3,0,1,0,3,3,3,3,0,0,0-3-3" transform="translate(-96.564 -589.98)" fill="#187385"/>
  <path id="Trazado_28396" data-name="Trazado 28396" d="M116.564,602.98a1,1,0,0,1-1-1v-6a1,1,0,0,1,2,0v6a1,1,0,0,1-1,1" transform="translate(-96.564 -589.98)" fill="#187385"/>
  <path id="Trazado_28397" data-name="Trazado 28397" d="M119.564,599.98h-6a1,1,0,1,1,0-2h6a1,1,0,0,1,0,2" transform="translate(-96.564 -589.98)" fill="#187385"/>
</svg>
