<svg id="Icono-hogar_problema" data-name="Icono-hogar problema" xmlns="http://www.w3.org/2000/svg" xmlns:xlink="http://www.w3.org/1999/xlink" width="24" height="24" viewBox="0 0 24 24">
  <defs>
    <clipPath id="clip-path">
      <rect id="Rect치ngulo_8087" data-name="Rect치ngulo 8087" width="22.002" height="18.212" fill="#187385"/>
    </clipPath>
  </defs>
  <rect id="Rect치ngulo_13202" data-name="Rect치ngulo 13202" width="24" height="24" fill="none"/>
  <g id="Grupo_17924" data-name="Grupo 17924" transform="translate(0.775 3.313)" clip-path="url(#clip-path)">
    <path id="Trazado_28666" data-name="Trazado 28666" d="M21.676,5.969,14.1.175a.854.854,0,0,0-1.034,0L8.442,3.707a4.672,4.672,0,0,0-3.79-1.929A4.619,4.619,0,0,0,0,6.352,4.641,4.641,0,0,0,5.159,10.9v4.832a2.5,2.5,0,0,0,2.526,2.483h11.79A2.5,2.5,0,0,0,22,15.729V6.623a.823.823,0,0,0-.325-.654M4.653,9.53a3.178,3.178,0,1,1,0-6.356A3.251,3.251,0,0,1,7.321,4.565,3.119,3.119,0,0,1,7.874,6.24c0,.038.012.074.012.112A3.136,3.136,0,0,1,6.843,8.675a3.239,3.239,0,0,1-1.684.8,3.285,3.285,0,0,1-.506.05m10.612,7.026H11.9V9.933h3.369Zm5.053-.828a.835.835,0,0,1-.842.828H16.949V9.106a.835.835,0,0,0-.842-.828H11.054a.835.835,0,0,0-.842.828v7.451H7.685a.835.835,0,0,1-.842-.828V10.383A4.574,4.574,0,0,0,9.306,6.352a4.464,4.464,0,0,0-.141-1.1L13.58,1.882l6.737,5.15Z" transform="translate(0 0)" fill="#187385"/>
  </g>
</svg>
