<svg id="icono-headphones-ppal" xmlns="http://www.w3.org/2000/svg" width="20" height="20" viewBox="0 0 20 20">
  <path id="Trazado_28105" data-name="Trazado 28105" d="M284.516,292.992a10,10,0,0,0-10,10v7a3,3,0,0,0,3,3h1a3,3,0,0,0,3-3v-3a3,3,0,0,0-3-3h-2v-1a8,8,0,0,1,16,0v1h-2a3,3,0,0,0-3,3v3a3,3,0,0,0,3,3h1a3,3,0,0,0,3-3v-7a10,10,0,0,0-10-10m-6,13a1,1,0,0,1,1,1v3a1,1,0,0,1-1,1h-1a1,1,0,0,1-1-1v-4Zm14,4a1,1,0,0,1-1,1h-1a1,1,0,0,1-1-1v-3a1,1,0,0,1,1-1h2v4Z" transform="translate(-274.516 -292.992)" fill="#187385"/>
</svg>
