<svg xmlns="http://www.w3.org/2000/svg" width="36.823" height="36.484" viewBox="0 0 36.823 36.484">
  <g id="icono-principal-servicios-tecnicos" transform="translate(0.85 0.75)">
    <path id="Trazado_34002" data-name="Trazado 34002" d="M345.926,69.878a13.665,13.665,0,0,0-5.439,2.249l-2.218-2.218-3.419,3.418,2.218,2.218a13.684,13.684,0,0,0-2.249,5.44h-3.141v4.834h3.141a13.671,13.671,0,0,0,2.25,5.44l-2.219,2.218,3.419,3.418,2.218-2.218a13.651,13.651,0,0,0,5.439,2.249v3.141h4.835V96.926a13.651,13.651,0,0,0,5.439-2.249l2.218,2.218,3.419-3.418-2.219-2.218a13.655,13.655,0,0,0,2.249-5.44" transform="translate(-331.678 -65.183)" fill="none" stroke="#187385" stroke-linecap="round" stroke-width="1.7"/>
    <line id="Línea_891" data-name="Línea 891" y2="7.288" transform="translate(16.73)" fill="none" stroke="#da291c" stroke-linecap="round" stroke-width="1.5"/>
    <line id="Línea_892" data-name="Línea 892" x1="7.288" transform="translate(27.935 17.904)" fill="none" stroke="#da291c" stroke-linecap="round" stroke-width="1.5"/>
    <line id="Línea_893" data-name="Línea 893" x1="5.153" y2="5.153" transform="translate(24.729 5.028)" fill="none" stroke="#da291c" stroke-linecap="round" stroke-width="1.5"/>
    <circle id="Elipse_10251" data-name="Elipse 10251" cx="6.232" cy="6.232" r="6.232" transform="translate(10.498 11.892)" fill="none" stroke="#da291c" stroke-linecap="round" stroke-width="1.5"/>
  </g>
</svg>
